<?xml version="1.0" encoding="UTF-8"?>
<svg width="132px" height="24px" viewBox="0 0 132 24" version="1.1" xmlns="http://www.w3.org/2000/svg" xmlns:xlink="http://www.w3.org/1999/xlink">
    <title>Balluff_Logo (1)</title>
    <g id="Balluff" stroke="none" stroke-width="1" fill="none" fill-rule="evenodd">
        <g id="balluff_concept_1" transform="translate(-248.000000, -1028.000000)" fill="#989FA4" fill-rule="nonzero">
            <g id="Balluff_Logo-(1)" transform="translate(248.000000, 1028.000000)">
                <path d="M19.716129,11.6645161 C20.9290323,11.1225806 21.7806452,9.62580645 21.7806452,8.10322581 C21.7806452,5.85806452 20.0258065,4.0516129 17.4967742,4.0516129 C17.4193548,4.0516129 4.10322581,4.0516129 4.10322581,4.0516129 L4.10322581,7.50967742 C4.10322581,7.50967742 15.483871,7.50967742 15.483871,7.50967742 C16.2322581,7.53548387 16.8258065,8.12903226 16.8258065,8.87741935 C16.8258065,9.62580645 16.2064516,10.2451613 15.4580645,10.2451613 C15.4322581,10.2451613 4.10322581,10.2451613 4.10322581,10.2451613 L4.10322581,19.8451613 C4.10322581,19.8451613 17.9870968,19.8451613 18.0645161,19.8451613 C20.4903226,19.8451613 22.3225806,17.9354839 22.3225806,15.5870968 C22.3483871,13.8322581 21.2129032,12.2322581 19.716129,11.6645161 Z M15.9225806,16.5677419 C15.8967742,16.5677419 15.3806452,16.5677419 15.3806452,16.5677419 L8.7483871,16.5677419 L8.7483871,13.6258065 C8.7483871,13.6258065 15.716129,13.6258065 15.7419355,13.6258065 C15.8451613,13.6258065 15.9741935,13.6258065 16.0258065,13.6516129 C16.7483871,13.7548387 17.2903226,14.3741935 17.2903226,15.0967742 C17.2903226,15.8709677 16.6967742,16.516129 15.9225806,16.5677419 Z" id="Shape"></path>
                <polygon id="Path" points="31.4580645 4.0516129 24.1806452 19.8709677 29.1096774 19.8709677 34.2451613 7.87096774 37.8580645 16.3612903 34.2451613 16.3612903 34.2451613 19.8709677 44.3096774 19.8709677 37.0322581 4.0516129"></polygon>
                <polygon id="Path" points="47.5612903 4.0516129 47.5612903 19.8709677 59.2516129 19.8709677 59.2516129 16.3354839 52.2064516 16.3354839 52.2064516 4.0516129"></polygon>
                <polygon id="Path" points="63.2516129 4.0516129 63.2516129 19.8709677 74.9677419 19.8709677 74.9677419 16.3354839 67.8967742 16.3354839 67.8967742 4.0516129"></polygon>
                <path d="M78.2451613,4.0516129 L78.2451613,16.2580645 C78.2451613,18.2709677 79.9225806,19.8451613 82.0645161,19.8451613 L90.3741935,19.8451613 C92.516129,19.8451613 94.1935484,18.2709677 94.1935484,16.2580645 L94.1935484,4.0516129 L89.5483871,4.0516129 L89.5483871,15.7419355 C89.5483871,16.0774194 89.2903226,16.3354839 88.9548387,16.3354839 L83.483871,16.3354839 C83.1483871,16.3354839 82.8903226,16.0774194 82.8903226,15.7419355 L82.8903226,4.0516129 L78.2451613,4.0516129 Z" id="Path"></path>
                <polygon id="Path" points="98.7096774 10.9419355 98.7096774 19.8709677 103.354839 19.8709677 103.354839 14.2709677 110.425806 14.2709677 110.425806 10.9419355"></polygon>
                <rect id="Rectangle" x="98.7096774" y="4.0516129" width="12.6967742" height="3.58709677"></rect>
                <polygon id="Path" points="115.148387 10.9419355 115.148387 19.8709677 119.793548 19.8709677 119.793548 14.2709677 127.096774 14.2709677 127.096774 10.9419355"></polygon>
                <rect id="Rectangle" x="115.148387" y="4.0516129" width="12.6967742" height="3.58709677"></rect>
            </g>
        </g>
    </g>
</svg>