<?xml version="1.0" encoding="UTF-8"?>
<svg width="80px" height="48px" viewBox="15 7 65 48" version="1.1" xmlns="http://www.w3.org/2000/svg" xmlns:xlink="http://www.w3.org/1999/xlink">
    <title>pgssoftware-logo</title>
    <g id="Balluff" stroke="none" stroke-width="1" fill="none" fill-rule="evenodd">
        <g id="balluff_concept_1" transform="translate(-104.000000, -1008.000000)" fill-rule="nonzero">
            <g id="pgssoftware-logo-white" transform="translate(104.000000, 1008.000000)">
                <rect id="BG" x="0" y="0" width="94.6745562" height="64"></rect>
                <path d="M75.5816992,39.7547446 L80.5523458,39.7547446 L80.5523458,40.2872992 C80.4036908,40.240584 80.245745,40.2125548 80.0785083,40.2125548 L76.631574,40.2125548 L76.631574,44.5664233 L79.9670173,44.5664233 C80.1899995,44.5664233 80.385109,44.5383941 80.5616365,44.4916789 L80.5616365,45.0242337 C80.4222728,44.9962043 80.2271633,44.9868613 79.9855991,44.9868613 L76.6408649,44.9868613 L76.6408649,49.5649636 L79.99489,49.5649636 C80.0785083,49.5556204 80.2736178,49.5369342 80.5616365,49.490219 L80.5616365,50.0788321 L75.600281,50.0788321 C75.6281538,49.9106569 75.6374447,49.7424818 75.6374447,49.5929928 L75.6374447,40.249927 C75.6374447,40.0443796 75.618863,39.8762043 75.5816992,39.7547446 Z M68.5484667,44.7719708 L69.6169235,44.7719708 C70.1650882,44.7719708 70.6667982,44.650511 71.1127629,44.3982481 C71.8374551,43.9871532 72.2090924,43.3611679 72.2090924,42.5109489 C72.2090924,42.1278832 72.1254739,41.7728468 71.9582373,41.4458393 C71.7910006,41.1188321 71.5587274,40.8572262 71.2614177,40.6516789 C70.8340349,40.3620438 70.2394157,40.2218978 69.4589777,40.2218978 L68.5391758,40.2218978 L68.5391758,44.7719708 L68.5484667,44.7719708 Z M68.5484667,45.1643796 L68.5484667,49.6023358 C68.5484667,49.7611679 68.5670485,49.92 68.6042123,50.0881751 L67.4985918,50.0881751 C67.5357556,49.92 67.5543373,49.7611679 67.5543373,49.6023358 L67.5543373,40.240584 C67.5543373,40.0817519 67.5357556,39.9229198 67.4985918,39.7547446 L69.8306147,39.7547446 C70.4995617,39.7547446 71.0941809,39.8668613 71.6051821,40.0817519 C72.0790194,40.2779562 72.4692383,40.5675912 72.7572571,40.9693431 C73.0731486,41.3991241 73.2310943,41.8943067 73.2310943,42.4548906 C73.2310943,43.2677372 72.9430756,43.9124088 72.3670381,44.370219 C71.7910006,44.8280292 70.9455262,45.0989781 69.8306147,45.1643796 L74.0115323,49.7237957 C74.1323145,49.8545986 74.2809693,49.9760583 74.4760788,50.0881751 L72.9337848,50.0881751 C72.8780391,49.9667153 72.7758389,49.8265693 72.6364751,49.6770802 L68.5484667,45.1643796 Z M59.8800309,46.1547446 L63.9494574,46.1547446 L61.8775805,40.7731387 L59.8800309,46.1547446 Z M59.7499579,46.5751824 L58.5793009,49.6957663 C58.5514282,49.779854 58.5328464,49.9106569 58.5235554,50.0881751 L57.9103542,50.0881751 C57.9939724,49.92 58.0590089,49.7891971 58.0961727,49.6957663 L61.6453073,40.0817519 C61.67318,40.0163503 61.6917618,39.9135767 61.7196346,39.7640877 L62.6301455,39.7640877 C62.6394365,39.8668613 62.6673093,39.9509489 62.695182,40.0256933 L66.3743896,49.7051094 C66.4115533,49.7985401 66.4858806,49.9293431 66.5973718,50.0975182 L65.3895511,50.0975182 C65.3802604,49.9667153 65.3523874,49.8359123 65.3059329,49.7051094 L64.1352759,46.5845256 L59.7499579,46.5845256 L59.7499579,46.5751824 Z M52.2150154,40.8665693 L49.6971738,49.6957663 C49.678592,49.7611679 49.6507192,49.8919708 49.6321373,50.0881751 L48.6844626,50.0881751 C48.6844626,49.92 48.6658808,49.7424818 48.6194261,49.5649636 L46.1108756,40.1938687 C46.0737119,40.0537227 46.0272572,39.9135767 45.9808027,39.7640877 L47.0028046,39.7640877 C47.0028046,39.7827738 47.0028046,39.7921168 47.0028046,39.7921168 C47.0028046,39.829489 47.0306774,39.9322628 47.0678411,40.109781 L49.4370278,48.920292 L51.9269964,40.1938687 C51.9641602,40.0350364 51.9920329,39.9229198 51.9920329,39.8575182 C51.9920329,39.8388321 51.9920329,39.8014599 51.9827422,39.7547446 L52.9861624,39.7547446 C52.9861624,39.7827738 52.9861624,39.8014599 52.9861624,39.8108029 C52.9861624,39.8948906 53.0047441,40.0070072 53.0511989,40.1471532 L55.6433678,48.920292 L57.9846817,40.1471532 C58.0218452,39.9883211 58.0497182,39.8575182 58.0497182,39.7640877 L58.6071737,39.7640877 C58.5885919,39.820146 58.5514282,39.9509489 58.4771007,40.1471532 L55.9220955,49.6957663 C55.9035138,49.779854 55.875641,49.9106569 55.8384773,50.0881751 L54.8815116,50.0881751 C54.8722208,49.9293431 54.8443478,49.7518249 54.7978933,49.5649636 L52.2150154,40.8665693 Z M37.7583313,39.7547446 L45.1446192,39.7547446 L45.1446192,40.3340147 C44.8566004,40.2872992 44.6243272,40.2686131 44.4477995,40.2686131 L41.9671218,40.2686131 L41.9671218,49.5929928 C41.9671218,49.7518249 41.9857036,49.9106569 42.0228673,50.0788321 L40.9172469,50.0788321 C40.9544106,49.9106569 40.9729924,49.7518249 40.9729924,49.5929928 L40.9729924,40.2686131 L38.4179872,40.2686131 C38.2135867,40.2686131 37.9906045,40.2872992 37.7490405,40.3340147 L37.7490405,39.7547446 L37.7583313,39.7547446 Z M31.8400102,39.7547446 L36.7177475,39.7547446 L36.7177475,40.2592701 C36.5319288,40.2312409 36.3368193,40.2125548 36.1417098,40.2125548 L32.8898852,40.2125548 L32.8898852,44.6131387 L35.7422,44.6131387 C35.9001458,44.6131387 36.0766733,44.5944526 36.253201,44.5570802 L36.253201,45.089635 C36.1045461,45.0522628 35.9280186,45.0335767 35.7236181,45.0335767 L32.8898852,45.0335767 L32.8898852,49.5929928 C32.8898852,49.7518249 32.9084669,49.9106569 32.9456307,50.0788321 L31.8400102,50.0788321 C31.877174,49.9106569 31.8957557,49.7518249 31.8957557,49.5929928 L31.8957557,40.2312409 C31.8957557,40.0817519 31.877174,39.9229198 31.8400102,39.7547446 Z M25.6429612,40.1378102 C24.2957768,40.1378102 23.2923565,40.6143067 22.6141188,41.5579562 C22.0102084,42.3988321 21.7128987,43.4919708 21.7128987,44.8467153 C21.7128987,46.2948906 22.0102084,47.4440877 22.6141188,48.2943067 C23.2830656,49.2379562 24.3143585,49.7051094 25.7079977,49.7051094 C27.0087277,49.7051094 28.0121479,49.2566423 28.6996766,48.3690511 C29.3407506,47.5375182 29.6566421,46.3789781 29.6566421,44.9121168 C29.6566421,43.4265693 29.3407506,42.2773722 28.6996766,41.4645256 C28.3373304,40.9973722 27.9192386,40.670365 27.4361104,40.4648176 C26.9436912,40.249927 26.3490717,40.1378102 25.6429612,40.1378102 Z M25.6987067,39.6239417 C27.2781646,39.6239417 28.5138581,40.0724088 29.3964961,40.9786861 C30.316298,41.9129928 30.7715535,43.2210219 30.7715535,44.9121168 C30.7715535,46.6125548 30.316298,47.929927 29.3964961,48.8735767 C28.5231489,49.770511 27.2967464,50.2283211 25.7265797,50.2283211 C24.0542125,50.2283211 22.7813554,49.7518249 21.9172991,48.8081751 C21.0532429,47.8551824 20.6165692,46.5284671 20.6165692,44.8280292 C20.6165692,43.2023358 21.0718247,41.9223358 21.9916266,40.9786861 C22.8556828,40.0910949 24.0913763,39.6332847 25.6987067,39.6239417 Z M13.6112095,49.4528468 L13.8899373,48.6026278 C14.1407924,48.8175182 14.3544837,48.9856933 14.5403023,49.1071532 C15.0791761,49.4715329 15.6830864,49.6490511 16.3427423,49.6490511 C17.1045984,49.6490511 17.7085087,49.4154744 18.1451824,48.9576642 C18.5075286,48.5745986 18.6933471,48.0981022 18.6933471,47.5468613 C18.6933471,46.8835037 18.4239102,46.3416059 17.8757455,45.9118249 C17.6434722,45.7249636 17.0953075,45.4259853 16.2219603,44.9962043 C15.3671949,44.5664233 14.7447027,44.1740147 14.3823565,43.8189781 C13.9178101,43.3611679 13.6855369,42.8192701 13.6855369,42.1932847 C13.6855369,41.6887591 13.8434827,41.2216059 14.1500833,40.8011679 C14.7354118,40.0070072 15.6459227,39.6052554 16.900198,39.6052554 C17.6341813,39.6052554 18.3774556,39.7734307 19.1393117,40.1284671 L18.8698747,40.8385401 C18.1173096,40.3620438 17.4019081,40.1191241 16.7422522,40.1191241 C16.0640145,40.1191241 15.5344316,40.3246716 15.1442126,40.7264233 C14.8190301,41.0627738 14.6517934,41.4738687 14.6517934,41.9410219 C14.6517934,42.4081751 14.8097392,42.800584 15.1256308,43.1182481 C15.4415223,43.4452554 16.0361417,43.8189781 16.9187799,44.239416 C17.5133993,44.5290511 17.940782,44.7626278 18.2195098,44.9308029 C18.4889467,45.0989781 18.711929,45.2764963 18.8977475,45.4633577 C19.3994577,45.9959123 19.6596037,46.6125548 19.6596037,47.3132847 C19.6596037,47.8458393 19.5109487,48.3316789 19.213639,48.7988321 C18.6097288,49.7331387 17.6341813,50.209635 16.2869968,50.209635 C15.3857768,50.2189781 14.4938477,49.9667153 13.6112095,49.4528468 Z" id="Shape" fill="#989FA4"></path>
                <path d="M51.3137952,35.559708 L51.9269964,33.6630658 C52.4658704,34.130219 52.9397076,34.5039417 53.3299266,34.7842337 C54.4912926,35.5877372 55.7920225,35.989489 57.2321164,35.989489 C58.8859016,35.989489 60.1866316,35.4849636 61.1157243,34.4665693 C61.9054533,33.6070072 62.2956722,32.569927 62.2956722,31.3459853 C62.2956722,29.8791241 61.7103438,28.6738687 60.5396868,27.730219 C60.0472676,27.3284671 58.8580289,26.6464233 56.9812614,25.7027738 C55.1230758,24.749781 53.7944731,23.890219 52.9954532,23.1054014 C51.9920329,22.0963503 51.4903229,20.900438 51.4903229,19.4989781 C51.4903229,18.3684672 51.8247964,17.3407299 52.4844522,16.4157664 C53.7480184,14.649927 55.726986,13.7716788 58.4306462,13.7716788 C60.0193948,13.7716788 61.6267253,14.1547445 63.2712197,14.930219 L62.6858912,16.5091971 C61.0506878,15.4440876 59.5176846,14.9115328 58.0868817,14.9115328 C56.6189152,14.9115328 55.46684,15.36 54.6306566,16.2662774 C53.9245461,17.0137226 53.5621999,17.9106569 53.5621999,18.9477372 C53.5621999,19.9754744 53.9059641,20.8443796 54.5934928,21.5637957 C55.2810215,22.2738687 56.5631695,23.1054014 58.4585189,24.0490511 C59.7406669,24.6937227 60.6697598,25.2075912 61.2643791,25.5719708 C61.8497076,25.9363503 62.3328358,26.3287591 62.7323458,26.7585401 C63.8193844,27.9451094 64.3675492,29.299854 64.3675492,30.8508029 C64.3675492,32.0186861 64.0423667,33.1118249 63.4012927,34.130219 C62.0912718,36.2043796 59.9915221,37.2508029 57.0834615,37.2508029 C55.1602395,37.2508029 53.2277264,36.6808759 51.3137952,35.559708 Z M16.4263607,25.4037957 L19.1300207,25.4037957 C20.4679144,25.4037957 21.5363711,25.2262773 22.3353909,24.8618978 C23.1994471,24.4881751 23.8869758,23.890219 24.379395,23.0867153 C24.9182688,22.2084671 25.1969967,21.2274452 25.1969967,20.1529928 C25.1969967,18.5927007 24.6952865,17.3594161 23.6825755,16.4531387 C22.6698643,15.5468613 21.3040979,15.0983942 19.5759852,15.0983942 L16.4356516,15.0983942 L16.4356516,25.4037957 L16.4263607,25.4037957 Z M40.9637016,24.460146 L47.8575701,24.460146 C47.7925336,24.8338687 47.7553698,25.1982481 47.7553698,25.5345986 L47.7553698,34.410511 C47.7646608,34.8589781 47.8389883,35.270073 47.9783521,35.6437957 C46.1759121,36.2884671 44.763691,36.7089051 43.75098,36.9144526 C42.7289778,37.1293431 41.6140666,37.2321168 40.3876639,37.2321168 C37.1172573,37.2321168 34.5622521,36.2230658 32.7133574,34.2236497 C30.6879352,32 29.675224,29.0756204 29.675224,25.4411679 C29.675224,21.4983941 30.8830445,18.4618978 33.3079769,16.3316788 C35.2497808,14.6218978 37.804786,13.7716788 40.9915743,13.7716788 C42.0507401,13.7716788 43.0169965,13.8651095 43.8903438,14.0426277 C44.763691,14.2294891 45.8414387,14.5658394 47.1235868,15.0610219 L47.1235868,17.0510949 C44.8844732,15.7150365 42.710396,15.0423358 40.6199371,15.0423358 C38.2228777,15.0423358 36.2346191,15.8645255 34.6737433,17.490219 C33.7539414,18.4525547 33.1035764,19.5083211 32.7319392,20.6668613 C32.2859747,22.1056933 32.0537015,23.7220438 32.0537015,25.4878832 C32.0537015,26.7024818 32.1837745,27.9077372 32.4439205,29.0943067 C32.7040665,30.2808759 33.0571217,31.2525548 33.4937954,32 C34.3671426,33.5416059 35.6585816,34.6534307 37.3588215,35.3354744 C38.44586,35.7559123 39.6258079,35.9708029 40.9079559,35.9708029 C42.571032,35.9708029 44.131908,35.5690511 45.6277474,34.7468613 L45.6184564,25.2356204 L40.9729924,25.2356204 L40.9729924,24.460146 L40.9637016,24.460146 Z M16.4263607,26.4221898 L16.4263607,35.8586861 C16.4263607,36.2137227 16.4635244,36.5781022 16.5471427,36.9424818 L14.1593743,36.9424818 C14.2429926,36.5781022 14.2801563,36.2137227 14.2801563,35.8586861 L14.2801563,15.1918248 C14.2801563,14.8274453 14.2429926,14.4630657 14.1593743,14.08 L20.2263502,14.08 C21.7686444,14.08 23.1622836,14.4070073 24.4165588,15.0516788 C26.4048174,16.0794161 27.3989467,17.7424818 27.3989467,20.0221898 C27.3989467,21.8534307 26.7671635,23.329635 25.4943065,24.4414599 C24.0170488,25.7588321 21.9358809,26.4221898 19.241512,26.4221898 L16.4263607,26.4221898 Z" id="Shape" fill="#989FA4"></path>
                <rect id="Rectangle-path" fill="#989FA4" x="67.3592278" y="14.1921168" width="13.6112095" height="22.4513869"></rect>
            </g>
        </g>
    </g>
</svg>